<svg width="361" height="263" viewBox="0 0 361 263" fill="none" xmlns="http://www.w3.org/2000/svg">
<g clip-path="url(#clip0_1136_549)">
<path fill-rule="evenodd" clip-rule="evenodd" d="M136.058 67.0339L117.111 48.1172L6.13672 159.292H361.004L203.212 0L136.058 67.0339Z" fill="#003E6B"/>
<path fill-rule="evenodd" clip-rule="evenodd" d="M77.5 156.565L117.103 117.636L136.05 136.59L203.204 69.4238L290.476 156.565H77.5Z" fill="#74A5D3"/>
<path fill-rule="evenodd" clip-rule="evenodd" d="M269.934 89.6049L203.268 23.3271L136.076 90.361L117.11 71.4822L32.0723 156.563H55.3184L117.11 94.7909L136.057 113.745L203.211 46.5729L269.959 114.205L314.674 68.6907V45.3063L269.934 89.6049Z" fill="#003E6B"/>
<path fill-rule="evenodd" clip-rule="evenodd" d="M136.076 90.3615L203.268 23.3276L269.934 89.6053L278.851 80.7834L203.218 4.6062L136.058 70.8965L117.242 52.0996L13.4258 156.564H32.0727L117.11 71.4826L136.076 90.3615Z" fill="#ACC9E5"/>
<path fill-rule="evenodd" clip-rule="evenodd" d="M290.886 92.9021L269.961 114.207L311.522 156.565H354.098L290.886 92.9021Z" fill="#ACC9E5"/>
<path fill-rule="evenodd" clip-rule="evenodd" d="M55.3164 156.566H77.505L117.108 117.636L136.055 136.59L203.209 69.4239L290.481 156.566H311.524L203.209 46.5752L136.055 113.741L117.108 94.7869L55.3164 156.559V156.566Z" fill="white"/>
<path d="M23.5465 185.674H18.2778L0 262.015H9.4674L15.6935 235.921H29.6474L35.9611 262.015H45.3409L26.6439 185.674H23.5527H23.5465ZM17.6458 226.683L22.4765 205.467L27.4636 226.683H17.6458ZM69.6633 203.961L71.603 204.572L69.4067 213.721L67.0539 212.738C65.0704 211.907 63.0054 211.686 60.9155 214.163C59.5889 215.763 58.5001 218.082 57.7179 221.081C56.892 224.188 56.479 227.692 56.479 231.479V262.021H47.4684V204.225H55.5216L55.7156 208.101C58.0871 204.837 60.9843 203.173 64.357 203.173C66.228 203.173 68.0113 203.438 69.6695 203.961H69.6633ZM81.6336 233.3C81.6336 247.421 84.8311 254.384 91.1448 254.384C93.191 254.384 95.4561 253.905 97.8902 252.96L100.85 251.819V260.251L99.7174 260.862C98.4534 261.561 96.9078 262.091 95.1495 262.462C93.4287 262.834 91.952 263.011 90.6442 263.011C84.5308 263.011 79.8503 260.295 76.7591 254.951C73.8432 249.916 72.429 242.865 72.429 233.388C72.429 223.911 73.8682 216.62 76.8029 211.453C79.9379 205.977 84.6184 203.198 90.7568 203.198C94.4111 203.198 97.5273 203.898 100.03 205.303L101.77 206.267L98.2657 214.282L96.2633 213.343C94.3673 212.467 92.6528 212.033 91.1511 212.033C84.8374 212.033 81.6399 219.191 81.6399 233.312L81.6336 233.3ZM124.903 253.811L127.8 252.784V261.234L126.518 261.826C124.778 262.614 122.694 263.004 120.11 263.011C115.367 263.011 109.717 260.484 109.717 248.473V212.745H104.93V206.154L109.804 204.71L111.369 191.509H118.702V204.206H127.125V212.726H118.702V247.119C118.702 251.454 119.309 252.941 119.572 253.382C119.722 253.647 120.116 254.277 121.812 254.277C122.989 254.277 124.034 254.126 124.903 253.817V253.811ZM140.509 186.947C141.273 188.15 141.642 189.663 141.642 191.566C141.642 193.469 141.273 194.912 140.534 196.097C139.621 197.565 138.206 198.371 136.573 198.371L136.598 198.415C134.946 198.415 133.532 197.672 132.506 196.248C131.636 195.019 131.179 193.469 131.179 191.585C131.179 189.701 131.636 188.037 132.506 186.834C133.526 185.454 134.946 184.71 136.573 184.71C138.2 184.71 139.602 185.498 140.515 186.941L140.509 186.947ZM131.868 204.219H140.878V262.015H131.868V204.219ZM157.529 233.293C157.529 247.415 160.727 254.378 167.04 254.378C169.087 254.378 171.352 253.899 173.786 252.954L176.746 251.813V260.244L175.613 260.856C174.349 261.555 172.803 262.084 171.045 262.456C169.324 262.828 167.848 263.004 166.54 263.004C160.426 263.004 155.746 260.289 152.655 254.945C149.739 249.91 148.325 242.859 148.325 233.382C148.325 223.904 149.764 216.614 152.699 211.447C155.833 205.971 160.514 203.192 166.652 203.192C170.307 203.192 173.423 203.891 175.926 205.297L177.665 206.261L174.161 214.276L172.159 213.337C170.263 212.461 168.548 212.026 167.047 212.026C160.733 212.026 157.535 219.185 157.535 233.306L157.529 233.293ZM197.708 185.674H182.515V262.015H197.426L197.401 262.04C213.964 262.04 222.343 248.971 222.343 223.18C222.343 211.245 220.297 202.007 216.292 195.681C212.093 189.045 205.842 185.674 197.708 185.674ZM208.852 246.186C206.33 250.912 202.495 253.212 197.12 253.212H191.632V194.471H197.489C202.495 194.471 206.193 196.701 208.765 201.327C211.549 206.298 212.944 213.432 212.944 223.438C212.944 233.445 211.574 241.082 208.852 246.186ZM264.831 226.33C263.504 224.446 261.764 222.915 259.631 221.8C263.529 219.323 266.77 214.421 266.77 204.988C266.77 198.749 265.031 193.91 261.57 190.602C258.129 187.338 253.279 185.674 247.116 185.674H231.228V262.015H249.838L249.863 261.996C255.651 261.996 260.244 259.892 263.51 255.758C266.645 251.775 268.235 246.236 268.235 239.336C268.235 233.886 267.083 229.506 264.837 226.33H264.831ZM240.389 217.704V194.496H247.116C250.62 194.496 253.254 195.347 254.931 197.08C256.627 198.806 257.478 201.434 257.478 204.893C257.478 209.424 256.652 212.776 255.063 214.856C253.58 216.759 250.952 217.723 247.204 217.723H240.37L240.396 217.698L240.389 217.704ZM249.206 253.212H240.37V226.501H247.836C251.402 226.501 254.062 227.528 255.951 229.651C257.891 231.8 258.867 235.039 258.867 239.242C258.867 251.763 253.361 253.212 249.206 253.212Z" fill="#113E69"/>
<path d="M328.542 235.383L320.283 223.876V235.383H306.598V200.41H324.631L333.01 212.244L341.389 200.41H359.422V235.383H345.737V223.876L337.478 235.383H328.548H328.542ZM341.889 252.781H341.827C341.576 253.253 340.707 253.405 340.175 253.499C336.846 254.098 332.703 254.098 332.703 257.23C332.703 259.202 334.418 260.424 336.283 260.424C339.305 260.424 341.883 258.515 341.883 255.345V252.774L341.889 252.781ZM342.953 261.722C342.415 261.722 341.977 261.281 341.977 260.739L341.895 259.467C340.438 261.294 339.242 262.088 336.126 262.088C333.01 262.088 330.745 260.626 330.745 257.393C330.745 252.913 335.131 252.472 339.367 251.974C340.988 251.817 341.889 251.42 341.889 249.674C341.889 247.425 339.662 246.75 337.321 246.75C334.862 246.75 332.666 247.872 332.572 250.487H331.608C331.608 250.487 330.557 250.474 330.77 249.328C331.414 246.391 334.274 245.106 337.572 245.106C340.406 245.106 343.848 245.944 343.848 250.273V258.799C343.848 260.721 344.079 261.729 344.079 261.729H342.953V261.722ZM347.358 245.572C348.359 245.572 348.341 245.572 348.341 245.572V247.336H348.403C349.511 245.478 352.082 245.099 353.315 245.099C357.827 245.099 359.422 248.445 359.422 251.338V260.739C359.422 261.281 358.984 261.722 358.446 261.722H357.458V251.653C357.458 248.893 356.331 246.99 353.159 246.99C350.312 246.99 348.434 249.145 348.341 252.314V261.729H347.358C346.82 261.729 346.382 261.288 346.382 260.746V246.555C346.382 246.013 346.82 245.572 347.358 245.572ZM325.445 240.808C325.601 240.474 325.939 240.241 326.327 240.241H327.447C327.985 240.241 328.423 240.682 328.423 241.224V260.746C328.423 261.288 327.985 261.729 327.447 261.729H326.446L326.465 243.159L318.53 261.729H316.503L308.569 243.159L308.587 261.729H307.586C307.048 261.729 306.61 261.288 306.61 260.746V241.224C306.61 240.682 307.048 240.241 307.586 240.241H308.706C309.101 240.241 309.439 240.474 309.589 240.808L317.517 259.309L325.445 240.808Z" fill="#113E69"/>
<path d="M309.829 186.219C310.179 186.377 310.448 186.604 310.636 186.9C310.823 187.196 310.917 187.536 310.917 187.933C310.917 188.33 310.823 188.67 310.636 188.967C310.448 189.256 310.179 189.483 309.829 189.641C309.478 189.798 309.065 189.88 308.596 189.88H307.682V191.26H306.199V185.986H308.596C309.071 185.986 309.478 186.068 309.829 186.226V186.219ZM309.19 188.5C309.347 188.368 309.422 188.179 309.422 187.933C309.422 187.687 309.347 187.498 309.19 187.36C309.034 187.221 308.809 187.158 308.502 187.158H307.682V188.702H308.502C308.809 188.702 309.034 188.633 309.19 188.5Z" fill="#113E69"/>
<path d="M312.863 191.006C312.419 190.773 312.075 190.445 311.825 190.03C311.574 189.614 311.449 189.141 311.449 188.618C311.449 188.095 311.574 187.629 311.825 187.207C312.075 186.791 312.425 186.463 312.863 186.23C313.301 185.997 313.802 185.877 314.353 185.877C314.903 185.877 315.404 185.997 315.842 186.23C316.28 186.463 316.63 186.791 316.881 187.207C317.131 187.622 317.256 188.095 317.256 188.618C317.256 189.141 317.131 189.607 316.881 190.03C316.63 190.445 316.28 190.773 315.842 191.006C315.398 191.239 314.903 191.359 314.353 191.359C313.802 191.359 313.301 191.239 312.863 191.006ZM315.072 189.935C315.285 189.809 315.454 189.633 315.579 189.406C315.704 189.179 315.767 188.914 315.767 188.618C315.767 188.322 315.704 188.057 315.579 187.83C315.454 187.604 315.285 187.427 315.072 187.301C314.859 187.175 314.622 187.112 314.353 187.112C314.084 187.112 313.846 187.175 313.633 187.301C313.42 187.427 313.251 187.604 313.126 187.83C313.001 188.057 312.938 188.322 312.938 188.618C312.938 188.914 313.001 189.179 313.126 189.406C313.251 189.633 313.42 189.809 313.633 189.935C313.846 190.061 314.09 190.124 314.353 190.124C314.615 190.124 314.853 190.061 315.072 189.935Z" fill="#113E69"/>
<path d="M326.078 185.98L324.383 191.255H322.8L321.798 188.047L320.753 191.255H319.17L317.475 185.98H319.001L320.059 189.345L321.166 185.98H322.531L323.588 189.377L324.689 185.98H326.104H326.078Z" fill="#113E69"/>
<path d="M330.814 190.102V191.255H326.609V185.98H330.714V187.134H328.074V188.022H330.401V189.137H328.074V190.102H330.814Z" fill="#113E69"/>
<path d="M333.925 189.856H333.118V191.255H331.635V185.98H334.031C334.507 185.98 334.914 186.062 335.264 186.22C335.614 186.377 335.884 186.604 336.071 186.9C336.259 187.197 336.353 187.537 336.353 187.934C336.353 188.331 336.265 188.646 336.09 188.93C335.915 189.213 335.658 189.434 335.333 189.597L336.465 191.255H334.882L333.931 189.856H333.925ZM334.626 187.36C334.469 187.222 334.244 187.159 333.937 187.159H333.118V188.703H333.937C334.244 188.703 334.469 188.633 334.626 188.501C334.782 188.369 334.857 188.18 334.857 187.934C334.857 187.688 334.782 187.499 334.626 187.36Z" fill="#113E69"/>
<path d="M341.373 190.102V191.255H337.168V185.98H341.273V187.134H338.632V188.022H340.96V189.137H338.632V190.102H341.373Z" fill="#113E69"/>
<path d="M342.197 185.981H344.675C345.251 185.981 345.758 186.088 346.202 186.302C346.646 186.517 346.99 186.825 347.234 187.222C347.478 187.619 347.604 188.086 347.604 188.615C347.604 189.144 347.478 189.61 347.234 190.007C346.99 190.404 346.646 190.713 346.202 190.927C345.758 191.142 345.251 191.249 344.675 191.249H342.197V185.975V185.981ZM344.613 190.064C345.063 190.064 345.42 189.938 345.695 189.68C345.97 189.421 346.102 189.069 346.102 188.615C346.102 188.161 345.964 187.808 345.695 187.55C345.426 187.292 345.063 187.166 344.613 187.166H343.68V190.058H344.613V190.064Z" fill="#113E69"/>
<path d="M355.281 188.998C355.45 189.225 355.538 189.49 355.538 189.811C355.538 190.271 355.35 190.63 354.987 190.882C354.618 191.134 354.086 191.26 353.385 191.26H350.557V185.986H353.235C353.904 185.986 354.411 186.112 354.762 186.358C355.112 186.604 355.287 186.944 355.287 187.366C355.287 187.618 355.225 187.839 355.106 188.04C354.981 188.236 354.812 188.393 354.586 188.513C354.887 188.62 355.118 188.784 355.287 189.004L355.281 188.998ZM352.021 187.057V188.072H353.041C353.541 188.072 353.792 187.902 353.792 187.561C353.792 187.221 353.541 187.057 353.041 187.057H352.021ZM354.042 189.641C354.042 189.282 353.785 189.105 353.266 189.105H352.027V190.176H353.266C353.785 190.176 354.042 190 354.042 189.641Z" fill="#113E69"/>
<path d="M358.999 189.364V191.255H357.516V189.339L355.52 185.98H357.084L358.323 188.073L359.562 185.98H360.995L358.992 189.364H358.999Z" fill="#113E69"/>
<path d="M287.47 185.677H286.219V262.087H287.47V185.677Z" fill="#113E69"/>
</g>
<defs>
<clipPath id="clip0_1136_549">
<rect width="361" height="263" fill="white"/>
</clipPath>
</defs>
</svg>
