<svg width="1256" height="372" viewBox="0 0 1256 372" fill="none" xmlns="http://www.w3.org/2000/svg">
<path d="M287.27 105.734L343.182 161.646L317.711 186.138L284.577 153.528L171.999 265.004H128L287.27 105.734ZM283.224 201.804L221.2 265.004H446.54L367.191 185.655L317.283 235.597L283.231 201.81L283.224 201.804ZM401.011 105L343.182 161.646L367.191 185.655L446.356 105H401.011Z" fill="#783ABB"/>
<path d="M629.445 265.195H613.555V160.66H669.174V176.55H629.445V265.195Z" fill="#141C52"/>
<path d="M723.631 267.078C693.605 267.078 669.174 242.648 669.174 212.621C669.174 182.595 693.605 158.165 723.631 158.165C739.1 158.165 753.895 164.781 764.224 176.312L752.631 186.688C745.253 178.448 734.687 173.722 723.638 173.722C702.186 173.722 684.738 191.169 684.738 212.621C684.738 234.074 702.186 251.521 723.638 251.521C734.687 251.521 745.26 246.795 752.631 238.555L764.224 248.93C753.902 260.462 739.107 267.078 723.631 267.078Z" fill="#141C52"/>
<path d="M968.098 267.486C938.072 267.486 913.641 243.056 913.641 213.029C913.641 183.003 938.072 158.573 968.098 158.573C983.567 158.573 998.362 165.189 1008.69 176.72L997.097 187.096C989.72 178.855 979.154 174.13 968.105 174.13C946.652 174.13 929.205 191.577 929.205 213.029C929.205 234.482 946.652 251.929 968.105 251.929C979.154 251.929 989.727 247.203 997.097 238.962L1008.69 249.338C998.369 260.87 983.573 267.486 968.098 267.486Z" fill="#141C52"/>
<path d="M773.559 161.068V176.958H813.288V265.603H829.178V176.958H868.908V161.068H773.559Z" fill="#141C52"/>
<path d="M899.614 161.068H883.724V265.603H899.614V161.068Z" fill="#141C52"/>
<path d="M489.703 265.195L579.666 175.231V265.195H595.557V160.66H571.766L467.231 265.195H489.703Z" fill="#141C52"/>
<path d="M1076.6 172.784C1074.74 169.03 1071.92 166.066 1068.14 163.883C1064.36 161.707 1059.68 160.613 1054.11 160.613H1035.38V210.656H1054.11C1059.68 210.656 1064.35 209.568 1068.14 207.386C1071.92 205.21 1074.74 202.239 1076.6 198.485C1078.45 194.732 1079.38 190.448 1079.38 185.628C1079.38 180.807 1078.45 176.523 1076.6 172.77V172.784ZM1067.72 194.263C1066.68 196.765 1065.02 198.737 1062.75 200.172C1060.47 201.606 1057.59 202.327 1054.12 202.327H1045.07V168.969H1054.12C1057.6 168.969 1060.47 169.69 1062.75 171.124C1065.02 172.559 1066.68 174.531 1067.72 177.033C1068.76 179.535 1069.29 182.405 1069.29 185.655C1069.29 188.905 1068.76 191.768 1067.72 194.277V194.263Z" fill="#141C52"/>
<path d="M1125.92 189.048C1124.53 187.008 1122.49 185.437 1119.79 184.322C1121.79 183.207 1123.31 181.772 1124.35 180.011C1125.39 178.25 1125.91 176.21 1125.91 173.899C1125.91 169.771 1124.35 166.535 1121.21 164.169C1118.08 161.809 1113.5 160.619 1107.47 160.619H1087.28V210.663H1109.55C1115.63 210.663 1120.23 209.399 1123.34 206.876C1126.44 204.353 1128 200.77 1128 196.14C1128 193.454 1127.31 191.088 1125.91 189.048H1125.92ZM1096.97 168.684H1107.83C1110.65 168.684 1112.78 169.227 1114.2 170.315C1115.61 171.403 1116.32 172.967 1116.32 175.007C1116.32 177.047 1115.6 178.611 1114.2 179.699C1112.78 180.787 1110.66 181.33 1107.83 181.33H1096.97V168.677V168.684ZM1115.97 200.892C1114.57 202.028 1112.44 202.592 1109.56 202.592L1096.96 202.599V189.116H1109.56C1112.44 189.116 1114.57 189.687 1115.97 190.816C1117.36 191.951 1118.05 193.631 1118.05 195.854C1118.05 198.077 1117.36 199.757 1115.97 200.892Z" fill="#141C52"/>
</svg>
